<svg xmlns="http://www.w3.org/2000/svg" viewBox="207.38345336914062 94.77728271484375 823.786376953125 479.10101318359375"><g><path d="M381.901 491.423C318.595 433.139 262.886 366.68 216.592 294.251C209.352 282.914 202.647 267.064 211.885 257.29C234.496 248.406 257.358 268.343 273.479 286.433C324.337 343.438 375.16 400.443 426.019 457.448C390.853 410.5 363.391 357.867 345.023 302.248C332.826 265.358 325.586 221.787 348.162 190.121C366.387 189.979 377.586 209.383 384.826 226.051C416.96 300.044 449.095 374.072 481.229 448.065C460.008 357.298 438.68 264.327 449.63 171.818C450.486 164.462 454.552 118.296 467.962 120.002C470.458 120.322 472.527 121.957 474.488 123.521C518.428 158.882 518.642 213.79 518.179 263.687C517.537 333.416 536.974 408.261 555.912 474.933C552.774 395.858 549.635 316.712 551.597 237.602C552.667 193.959 556.091 147.972 580.593 111.793C606.771 116.875 614.511 149.926 616.722 176.403C623.641 259.885 630.56 343.331 637.479 426.813C639.334 337.751 653.243 248.939 678.637 163.502C685.092 141.823 692.76 119.611 705.564 101.237C712.626 91.1087 728.39 93.2766 732.135 105.04C739.91 129.527 739.197 157.034 737.52 183.084C731.136 282.381 716.228 380.932 698.895 478.913C715.229 381.998 744.261 287.214 785.027 197.727C792.302 181.769 802.11 164.391 816.127 155.222C824.187 149.962 834.922 155.861 834.922 165.457C834.922 274.491 793.872 379.865 753.427 481.685C792.017 399.91 836.884 321.048 887.457 246.024C904.434 220.863 926.582 193.568 957.005 192.858C963.425 206.682 957.647 222.853 951.619 236.891C914.706 323.038 869.589 405.738 817.125 483.462C853.468 435.733 891.345 389.177 929.257 342.656C955.721 310.137 986.393 275.238 1028.05 269.942C1037.36 287.214 1024.06 307.578 1011.43 322.612C949.836 396.178 888.242 469.709 826.684 543.275C817.482 554.257 807.674 565.7 794.193 570.676C783.636 574.585 772.009 574.052 760.738 573.483C667.474 568.686 574.209 563.852 480.98 559.055" fill="#9D882F"/></g></svg>