<svg xmlns="http://www.w3.org/2000/svg" viewBox="20.162399291992188 70.77345275878906 1197.277587890625 674.0062866210938"><g><path d="M694.078 743.034C695.789 742.892 819.081 579.575 900.848 508.226C960.729 455.968 1023.6 417.147 1217.44 328.521C1207.38 296.455 1157.66 263.109 1123.98 262.327C1093.18 261.616 1057.39 276.867 1034.51 256.283C1020.18 243.379 1018.54 222.049 1012.13 203.918C996.836 160.831 946.828 133.245 902.095 143.234C890.796 145.758 879.747 150.38 868.162 150.309C839.041 150.131 819.259 122.366 797.231 103.383C757.845 69.4323 698.177 61.0069 650.878 82.7635C627.246 93.6418 605.432 111.595 579.377 112.235C555.745 112.839 534.573 98.9388 512.188 91.4733C472.873 78.3553 428.925 86.6385 395.598 110.635C365.657 132.214 348.869 177.682 313.51 189.023C287.704 197.306 258.049 184.899 233.098 195.422C210.928 204.736 199.45 229.052 180.987 244.445C158.852 262.896 116.971 265.029 90.9152 277.364C57.9804 292.971 21.6594 331.578 20.1624 369.759C28.8951 360.409 255.482 444.023 366.798 508.582C413.99 535.955 609.104 742.679 618.335 743.07C647.385 744.314 655.013 746.198 694.043 743.07L694.078 743.034Z" fill="#FD7B41"/></g></svg>