<svg width="447" height="178" viewBox="0 0 447 178" fill="none" xmlns="http://www.w3.org/2000/svg">
<path d="M405.877 170.798C299.163 226.502 266.794 250.955 227.74 309.051C204.623 267.623 184.164 246.117 142.443 208.955C106.861 179.09 86.7702 164.439 50.7633 141.488C26.1819 129.287 18.1856 122.358 6.08369 109.966C-0.988384 97.146 -0.0132744 90.7544 4.92319 78.4445C11.5811 68.231 16.0838 64.9857 27.553 64.0659C57.3455 66.5291 89.392 92 126.196 132.086C98.9457 92.249 78.542 67.2862 78.0349 38.6273C79.1796 30.856 80.6455 26.8926 85.5782 20.9308C91.8058 15.6538 95.7106 14.954 102.986 15.4007C115.149 17.419 122.494 23.3464 136.641 43.0514C149.521 66.5837 156.518 82.7883 168.554 118.261C164.626 98.6458 163.443 87.6218 162.171 67.937C162.95 52.1653 163.127 43.3543 168.554 27.014C174.8 10.7378 179.649 3.48457 195.826 1.02238C213.133 2.56599 219.206 9.47531 226.579 27.5671C229.862 61.3753 228.363 88.2461 223.678 140.935C232.112 110.911 237.696 94.7102 249.79 67.384C260.768 42.3278 266.723 33.0707 277.061 25.9081C290.445 18.6627 298.335 17.8655 306.654 23.6961C318.057 30.1923 315.054 43.8645 313.617 64.066C307.411 87.7325 301.266 100.906 288.666 124.345L272.419 156.972C291.405 121.183 303.54 101.589 336.247 70.1491C360.116 52.1207 379.479 45.1986 389.05 65.172C396.915 90.2386 368.902 120.406 312.457 177.434C342.547 154.698 346.122 146.824 396.593 111.625C419.562 98.5516 431.374 100.544 445.334 117.708C453.014 137.802 433.164 152.54 405.877 170.798Z" fill="#BB98F2" stroke="#BB98F2"/>
</svg>
