<svg aria-hidden="true" class="" width="1252" height="810" viewBox="0 0 1252 810" fill="none" xmlns="http://www.w3.org/2000/svg"><path d="M764.743 694.888C742.129 710.711 719.908 730.643 702.814 751.395C694.053 762.004 671.119 789.721 663.676 809.331C648.327 759.503 529.419 680.422 485.296 658.812C466.671 649.668 437.113 639.703 437.433 614.021C437.54 606.484 439.855 598.733 445.09 593.34C460.866 577.052 485.972 591.589 501.214 600.055C524.932 613.235 548.685 634.059 565.957 653.597C552.78 639.238 537.823 620.236 526.356 604.77C516.884 591.982 507.803 578.481 505.025 563.371C503.956 557.549 503.85 551.441 506.129 545.869C508.408 540.333 513.322 535.404 519.733 533.796C530.274 531.153 540.886 537.761 548.151 545.012C560.366 557.192 568.521 572.123 575.928 587.017C585.615 606.556 594.233 626.522 601.747 646.775C592.31 624.308 586.398 600.662 584.19 576.766C582.623 559.657 583.3 507.293 615.707 512.079C624.859 513.437 632.338 519.759 636.504 527.081C640.671 534.404 642.095 542.726 643.164 550.87C647.295 582.767 647.152 614.985 646.654 647.132C650.535 623.736 655.984 600.519 663.249 577.766C668.876 560.121 672.045 543.19 686.29 529.867C690.421 526.01 699.68 521.366 705.663 521.795C714.708 522.438 721.261 528.046 722.935 535.904C727.279 556.371 721.368 581.088 714.601 601.019C707.835 620.986 698.505 640.203 692.095 660.277C708.227 624.593 713.818 609.949 729.915 587.124C736.966 577.123 744.729 567.408 754.202 559.121C758.867 555.049 764.066 551.263 770.263 549.37C776.459 547.477 783.831 547.834 788.924 551.441C796.545 556.835 796.651 567.015 794.657 575.48C790.455 593.447 780.127 609.77 769.301 625.415C757.371 642.56 742.913 657.919 731.018 674.921C748.29 657.205 765.562 639.488 782.87 621.807C792.877 611.556 804.344 599.483 819.229 594.84C835.789 589.696 853.88 599.805 852.562 616.164C851.921 624.343 847.007 631.809 841.38 638.31C821.081 661.741 790.918 676.493 764.743 694.817V694.888Z" fill="#FFC4C0"/></svg>