<svg xmlns="http://www.w3.org/2000/svg" viewBox="0.0000457763671875 -0.0000152587890625 1809.0008544921875 1264"><g><path d="M828.861 1025.95C712.217 925.542 587.811 832.28 456.902 746.798C356.307 681.188 249.209 623.78 150.607 555.752C79.4882 506.755 -36.7359 424.427 11.3062 331.585C40.4671 275.228 118.614 251.571 175.468 286.794C238.929 326.118 293.895 378.164 333.125 437.36C275.748 350.721 181.866 179.232 288.86 98.6918C354.105 49.5896 411.797 98.9021 445.573 151.369C490.678 221.289 524.035 299.096 562.322 372.066C541.972 300.042 533.685 225.39 537.881 151.369C540.818 98.5866 555.399 38.7598 607.427 12.7893C771.169 -69.1177 785.224 266.396 790.259 338.525C801.693 228.124 821.518 108.786 910.889 31.0843C924.84 18.8876 941.414 7.63722 960.924 5.4292C1013.48 -0.353706 1042.53 57.896 1048.2 104.37C1060.05 202.364 1020.92 282.904 1018.72 377.323C1085.75 277.857 1119.84 152.841 1229.04 88.9134C1248.02 77.7681 1269.95 68.831 1292.6 70.303C1438.83 79.871 1254 405.606 1216.45 460.807C1248.23 414.228 1360.16 241.582 1400.23 207.726C1424.04 187.643 1452.15 169.769 1484.67 165.458C1563.76 154.944 1611.8 213.404 1587.57 268.814C1541.84 372.907 1457.92 470.27 1386.07 562.165C1462.01 465.118 1553.9 351.037 1667.5 286.268C1727.6 251.991 1805.65 262.821 1808.9 338.525C1810.47 376.797 1793.58 412.441 1766.94 445.561C1710.19 516.323 1609.39 575.729 1550.54 625.357C1442.18 716.727 1336.14 810.305 1238.06 910.507C1137.67 1013.02 1055.02 1132.04 1019.56 1264C987.253 1170 908.686 1094.51 829.071 1025.95H828.861Z" fill="#BB98F2"/></g></svg>