<svg xmlns="http://www.w3.org/2000/svg" viewBox="0 0.7246131896972656 1252.00244140625 311.07977294921875"><g><path d="M10.5983 299.408C23.5071 276.524 46.579 259.68 73.1099 256.695C99.6407 253.71 123.212 259.183 147.924 247.705C166.503 239.07 179.804 223.789 192.57 208.332C203.767 194.757 216.106 176.67 234.078 171.802C257.899 165.405 283.895 176.243 308.429 171.375C332.963 166.507 349.152 147.034 366.019 128.911C400.324 92.0962 452.851 56.5965 504.736 80.0142C531.659 92.1672 552.734 101.726 583.009 95.472C609.683 89.9996 632.113 73.8311 656.754 63.3127C697.905 45.7228 748.72 51.6571 784.309 78.9837C803.886 94.0151 818.185 114.91 839.831 127.454C865.399 142.236 892.286 139.962 919.851 132.713C939.963 127.418 959.113 123.58 978.476 133.566C997.839 143.551 1004.94 160.004 1012.99 178.056C1023.16 200.763 1035.25 225.424 1053.11 243.192C1070.98 260.959 1095.08 262.914 1118.55 260.284C1132.06 258.792 1144.29 255.949 1157.31 252.218C1166.26 249.659 1173.68 247.598 1182.91 250.299C1205.77 257.015 1218.07 288.357 1230.59 306.444C1237.97 317.105 1254.55 310.673 1251.67 297.596C1242.89 257.548 1211.87 210.428 1168.47 203.357C1147.15 199.874 1126.39 201.864 1105 201.331C1101.4 201.225 1097.65 201.402 1095.33 200.443C1093.94 199.874 1096.26 201.971 1092.87 197.671C1085.63 188.432 1079.79 178.162 1074.29 167.786C1062.88 146.181 1055.04 123.971 1038.13 105.671C1021.23 87.37 998.802 75.1459 974.91 70.7395C947.167 65.6225 922.134 71.7345 895.424 78.8771C883.371 82.1108 874.278 83.6388 863.117 77.278C851.955 70.9172 843.04 60.9674 833.769 52.1902C795.256 15.8022 742.658 -3.91985 689.418 1.65918C662.21 4.50199 638.246 13.5279 614.033 25.9652C589.107 38.7934 566.071 53.7182 538.149 41.2098C510.227 28.7014 483.019 21.5233 451.603 25.9652C423.004 30.0162 396.366 42.0982 373.294 59.2617C350.686 76.1053 334.211 96.5381 315.489 117.184C296.34 138.292 269.667 126.814 244.562 127.667C217.96 128.555 196.172 140.602 178.378 159.826C162.652 176.776 150.028 200.407 129.203 211.814C116.009 219.028 100.247 218.53 85.8404 221.622C72.2184 224.571 59.0956 229.084 47.2209 236.369C24.8622 250.121 9.35015 270.731 0.328227 295.109C-1.84702 301.007 7.38893 304.703 10.42 299.337L10.5983 299.408Z" fill="#FFD743"/></g></svg>